<svg height="648" viewBox="0 0 2617 648" width="2617" xmlns="http://www.w3.org/2000/svg"><mask id="a" fill="#fff"><path d="M0 3.788h200.864v230.488H0z" fill="#fff" fill-rule="evenodd"/></mask><mask id="b" fill="#fff"><path d="M2.869 3.785h395.91v237.728H2.869z" fill="#fff" fill-rule="evenodd"/></mask><g fill="none" fill-rule="evenodd"><path d="M283.65 640.235V497.246h-38.233c-2.941 0-5.08-2.41-5.08-5.087v-29.187c0-2.678 2.139-5.088 5.08-5.088H364.13c2.94 0 5.08 2.41 5.08 5.088v29.187c0 2.677-2.14 5.087-5.08 5.087h-38.234v142.989c0 2.677-2.407 5.087-5.08 5.087H288.73c-2.674 0-5.08-2.41-5.08-5.087zm112.297 0V462.972c0-2.678 2.139-5.088 5.08-5.088h79.944c32.084 0 58.287 25.974 58.287 57.838 0 24.635-16.31 44.45-39.571 53.822l36.63 68.013c1.871 3.481 0 7.765-4.546 7.765h-35.56c-2.139 0-3.743-1.339-4.278-2.41l-35.56-70.958h-18.449v68.28c0 2.678-2.406 5.088-5.08 5.088h-31.817c-2.941 0-5.08-2.41-5.08-5.087zm41.977-102.288h39.571c10.962 0 20.32-10.175 20.32-21.421s-9.358-20.35-20.32-20.35h-39.57zm134.488 35.613V462.972c0-2.678 2.406-5.088 5.08-5.088h32.887c2.94 0 5.08 2.41 5.08 5.088v108.446c0 18.744 13.903 33.739 32.886 33.739 19.251 0 33.422-14.995 33.422-33.739V462.972c0-2.678 2.139-5.088 5.08-5.088h32.886c2.674 0 5.08 2.41 5.08 5.088V573.56c0 40.701-34.223 74.44-76.468 74.44-41.977 0-75.933-33.739-75.933-74.44zm186.09 53.822c-2.673-2.678-3.476-3.749-1.337-7.498l12.567-22.224c2.139-3.481 7.219-2.946 9.09-1.607 1.07.535 20.32 14.727 37.967 14.727 10.695 0 18.449-6.694 18.449-16.066 0-11.246-9.358-19.815-27.54-27.045-22.993-9.104-51.87-27.044-51.87-59.176 0-26.51 20.588-53.286 61.763-53.286 27.807 0 49.197 14.191 57.218 20.082 3.208 1.875 2.673 6.694 1.604 8.569l-13.636 20.618c-1.872 2.945-6.684 5.355-9.09 3.481-2.407-1.339-21.925-16.066-38.235-16.066-9.625 0-16.844 6.426-16.844 13.656 0 9.908 8.021 17.405 29.143 25.974 20.855 8.3 54.01 24.634 54.01 61.05 0 27.581-23.797 55.429-63.1 55.429-34.758 0-54.01-14.46-60.159-20.618zm179.941 12.853V497.246H900.21c-2.941 0-5.08-2.41-5.08-5.087v-29.187c0-2.678 2.139-5.088 5.08-5.088h118.713c2.941 0 5.08 2.41 5.08 5.088v29.187c0 2.677-2.139 5.087-5.08 5.087h-38.234v142.989c0 2.677-2.407 5.087-5.08 5.087h-32.085c-2.674 0-5.08-2.41-5.08-5.087zm112.296 0V462.972c0-2.678 2.139-5.088 5.08-5.088h110.692c2.94 0 5.08 2.41 5.08 5.088v29.187c0 2.677-2.14 5.087-5.08 5.087h-74.062v33.204h60.96c2.674 0 5.08 2.41 5.08 5.087v29.187c0 2.945-2.406 5.088-5.08 5.088h-60.96v36.148h74.062c2.94 0 5.08 2.41 5.08 5.088v29.187c0 2.677-2.14 5.087-5.08 5.087h-110.692c-2.941 0-5.08-2.41-5.08-5.087zm156.68 0V462.972c0-2.678 2.139-5.088 4.812-5.088h65.239c51.603 0 93.847 42.04 93.847 93.452 0 51.947-42.244 93.986-93.847 93.986h-65.239c-2.673 0-4.812-2.41-4.812-5.087zm41.71-34.542h25.667c30.213 0 52.138-23.832 52.138-54.357 0-30.258-21.925-54.09-52.138-54.09h-25.667zm204.539 21.689c-2.674-2.678-3.476-3.749-1.337-7.498l12.566-22.224c2.14-3.481 7.22-2.946 9.09-1.607 1.07.535 20.321 14.727 37.968 14.727 10.694 0 18.448-6.694 18.448-16.066 0-11.246-9.358-19.815-27.54-27.045-22.993-9.104-51.87-27.044-51.87-59.176 0-26.51 20.588-53.286 61.764-53.286 27.806 0 49.196 14.191 57.217 20.082 3.209 1.875 2.674 6.694 1.604 8.569l-13.636 20.618c-1.871 2.945-6.684 5.355-9.09 3.481-2.407-1.339-21.925-16.066-38.234-16.066-9.626 0-16.845 6.426-16.845 13.656 0 9.908 8.021 17.405 29.144 25.974 20.855 8.3 54.009 24.634 54.009 61.05 0 27.581-23.796 55.429-63.1 55.429-34.758 0-54.009-14.46-60.158-20.618zm153.203-53.822V462.972c0-2.678 2.407-5.088 5.08-5.088h32.887c2.941 0 5.08 2.41 5.08 5.088v108.446c0 18.744 13.903 33.739 32.887 33.739 19.25 0 33.421-14.995 33.421-33.739V462.972c0-2.678 2.14-5.088 5.08-5.088h32.887c2.674 0 5.08 2.41 5.08 5.088V573.56c0 40.701-34.224 74.44-76.468 74.44-41.978 0-75.934-33.739-75.934-74.44zm195.449 66.675V462.972c0-2.678 2.139-5.088 5.08-5.088h64.436c32.887 0 59.891 26.777 59.891 59.177 0 33.203-27.004 60.248-59.623 60.248h-28.074v62.926c0 2.677-2.407 5.087-5.08 5.087h-31.55c-2.941 0-5.08-2.41-5.08-5.087zm41.71-102.02h25.4c11.497 0 21.122-9.104 21.122-21.154 0-11.246-9.625-19.815-21.122-19.815h-25.4zm115.771 102.02V462.972c0-2.678 2.14-5.088 5.08-5.088h64.437c32.887 0 59.891 26.777 59.891 59.177 0 33.203-27.004 60.248-59.624 60.248h-28.074v62.926c0 2.677-2.406 5.087-5.08 5.087h-31.55c-2.94 0-5.08-2.41-5.08-5.087zm41.71-102.02h25.4c11.498 0 21.123-9.104 21.123-21.154 0-11.246-9.625-19.815-21.122-19.815h-25.4zm102.136 13.656c0-53.554 42.512-96.664 95.986-96.664 53.475 0 96.254 43.11 96.254 96.664S2253.107 648 2199.633 648c-53.474 0-95.986-42.575-95.986-96.129zm42.78 0c0 29.187 24.063 53.286 53.206 53.286 29.411 0 53.475-24.1 53.475-53.286 0-29.454-24.064-53.821-53.475-53.821-29.143 0-53.206 24.367-53.206 53.821zm181.812 88.364V462.972c0-2.678 2.139-5.088 5.08-5.088h79.944c32.085 0 58.287 25.974 58.287 57.838 0 24.635-16.31 44.45-39.57 53.822l36.629 68.013c1.872 3.481 0 7.765-4.545 7.765h-35.56c-2.14 0-3.744-1.339-4.279-2.41l-35.56-70.958h-18.449v68.28c0 2.678-2.406 5.088-5.08 5.088h-31.817c-2.941 0-5.08-2.41-5.08-5.087zm41.977-102.288h39.571c10.962 0 20.32-10.175 20.32-21.421s-9.358-20.35-20.32-20.35h-39.57zm161.225 102.288V497.246h-38.234c-2.941 0-5.08-2.41-5.08-5.087v-29.187c0-2.678 2.139-5.088 5.08-5.088h118.713c2.941 0 5.08 2.41 5.08 5.088v29.187c0 2.677-2.139 5.087-5.08 5.087h-38.234v142.989c0 2.677-2.406 5.087-5.08 5.087h-32.085c-2.673 0-5.08-2.41-5.08-5.087z" fill="#5b6770"/><g fill="#ffcc43"><path d="M65.335 116.248c4.467 2.783 8.376 3.897 12.285 3.897 13.402 0 31.27-16.702 42.439-31.733 16.193-21.711 27.92-47.877 21.777-52.891-8.376-6.68-49.697 27.279-76.5 80.727m31.828 33.402c-13.401 0-26.803-3.897-39.646-12.248-3.35 11.135-5.026 22.825-5.026 32.846 0 24.495 10.051 41.757 26.803 41.757 42.439 0 79.852-41.2 102.746-75.716 6.142-8.907 13.402-10.02 17.869 1.113 1.675 5.01 2.233 21.155-7.818 36.186-23.453 33.964-68.125 60.125-111.68 60.682-51.935.56-80.414-33.403-80.414-77.94 0-20.041 5.588-41.753 17.315-64.02C46.346 33.293 91.58 3.787 123.967 3.787c7.818 0 13.96 1.118 19.544 4.454 15.636 8.912 26.804 17.819 34.621 28.953 3.35 5.01 5.584 13.361 5.584 20.598 0 33.403-37.413 91.857-86.552 91.857" mask="url(#a)" transform="translate(0 124.194)"/><path d="M280.315 159.16c0 3.897 0 7.794-.559 11.134 24.012-22.268 50.815-40.64 70.917-40.64 16.194 0 31.27 19.485 31.27 40.64 0 12.248-10.05 30.062-27.92 61.242-17.868 28.388-36.854 65.135-36.854 85.733 0 11.687 3.91 18.928 11.168 18.928 18.986 0 48.023-36.19 68.13-73.485 5.58-10.578 13.397-10.021 18.422-2.227 4.468 6.68 5.026 23.938-2.792 38.965-15.63 30.623-56.398 60.129-89.902 60.129-37.413 0-53.607-18.928-53.607-47.877 0-30.062 25.687-81.284 47.465-115.795 11.726-18.376 20.66-32.85 16.752-32.85-5.026 0-32.388 15.588-63.1 50.104-30.712 32.289-55.84 86.846-78.734 136.95-3.909 8.911-11.168 12.251-20.103 3.344-7.821-7.794-12.284-17.258-12.284-30.623 0-8.35 1.675-17.81 5.025-28.949 10.61-31.171 53.607-109.115 88.227-160.888 7.26-10.578 15.636-10.021 21.22 0 5.025 8.35 7.259 17.258 7.259 26.165"/><path d="M543.873 163.058c-15.635-.557-52.49 33.402-82.085 80.166-16.752 26.169-25.69 54-25.69 72.376 0 10.02 2.233 17.254 8.38 17.254 17.869 0 44.672-31.176 69.8-79.61 30.154-57.34 40.205-89.63 29.595-90.186m10.051 126.372c-6.7 14.475-10.05 26.722-10.05 35.63 0 8.35 2.233 12.247 7.258 12.247 19.544 0 46.906-36.738 65.892-73.485 5.584-10.578 12.843-10.021 17.869 0 2.792 5.01 5.025 20.598-2.234 36.186-15.077 30.066-49.698 59.015-82.085 59.015-27.362 0-45.789-9.464-50.256-33.963-17.31 17.818-39.088 32.293-63.658 32.293-32.387 0-50.26-23.943-50.26-56.784 0-23.386 10.056-54.005 29.595-82.397 43.56-62.908 89.907-89.074 118.944-89.074 18.985 0 31.27 7.794 35.737 22.269 27.92-52.335 64.217-115.243 82.644-141.404 10.05-13.922 17.869-12.804 23.453.553 2.792 6.68 5.025 13.921 5.025 21.715 0 15.031-7.26 36.743-21.777 62.908-32.388 61.238-79.852 139.177-106.097 194.291"/><path d="M743.213 118.521c-14.518 24.492-39.088 66.249-42.997 75.713 24.012-23.382 42.997-48.99 55.84-70.702 18.986-31.733 26.25-56.232 22.895-58.459-2.234-1.109-16.752 20.603-35.738 53.448m63.658-43.98c-17.307 66.245-78.176 131.94-127.316 164.786-11.168 28.392-18.427 53.444-18.427 72.929 0 13.365 3.35 22.825 10.61 22.825 25.686 0 58.074-37.3 79.293-77.383 7.259-13.913 19.544-13.913 23.453.557 2.233 8.35 1.675 21.16-5.584 36.19-8.376 16.701-49.698 62.347-96.604 62.347-34.062 0-55.281-19.484-55.281-57.897 0-9.464 1.116-20.598 3.908-31.728 21.778-92.418 84.877-195.413 139.6-252.754 10.61-10.577 20.665-13.918 31.275-3.897 12.28 10.577 18.423 26.17 18.423 40.644 0 7.79-.554 13.913-3.35 23.382"/><path d="M810.778 240.441c4.467 2.784 8.376 3.897 12.285 3.897 13.401 0 31.27-16.701 42.438-31.732 16.194-21.712 27.92-47.877 21.778-52.891-8.376-6.68-49.698 27.278-76.501 80.726m31.829 33.403c-13.402 0-26.803-3.897-39.647-12.248-3.35 11.134-5.025 22.825-5.025 32.846 0 24.495 10.05 41.757 26.803 41.757 42.438 0 79.851-41.2 102.746-75.716 6.142-8.908 13.401-10.021 17.868 1.113 1.676 5.01 2.234 21.155-7.817 36.186-23.453 33.963-68.125 60.125-111.68 60.681-51.936.561-80.414-33.402-80.414-77.939 0-20.041 5.588-41.753 17.314-64.021 29.033-59.015 74.268-88.52 106.655-88.52 7.818 0 13.96 1.117 19.544 4.453 15.635 8.911 26.803 17.819 34.62 28.953 3.351 5.01 5.585 13.36 5.585 20.598 0 33.402-37.413 91.857-86.552 91.857"/><path d="M1007.888 268.276c0-17.815-.558-35.63-1.675-50.66-13.402 21.154-29.037 45.097-45.789 69.031 6.701 26.165 18.427 45.654 30.712 45.654 11.727 0 16.752-27.84 16.752-64.025m-75.384-32.842c11.168-9.468 19.544-6.684 21.22 6.677 18.427-26.166 37.97-55.114 52.49-79.053 2.233-20.045 8.933-32.85 21.777-43.427 8.934-7.79 18.985-11.687 27.361-11.687 15.077 0 18.428 12.248 1.117 40.64-.558 6.68-1.117 16.144-1.117 23.381 0 39.527 7.26 75.713 6.143 105.779-.559 13.914-3.35 29.505-9.493 41.753 22.894-15.592 38.53-33.963 48.58-61.242 5.026-12.804 13.402-8.907 17.311 0 2.792 5.567 4.467 21.16-5.584 38.417-21.22 38.966-60.307 60.12-102.187 61.79-33.504 1.118-67.008-7.79-85.994-42.862-6.142-10.577-9.493-23.942-9.493-36.747 0-16.7 5.584-32.841 17.87-43.419"/><path d="M1176.516 268.276c0-17.815-.558-35.63-1.675-50.66-13.402 21.154-29.037 45.097-45.789 69.031 6.7 26.165 18.427 45.654 30.712 45.654 11.727 0 16.752-27.84 16.752-64.025m-75.384-32.842c11.168-9.468 19.544-6.684 21.22 6.677 18.427-26.166 37.97-55.114 52.489-79.053 2.234-20.045 8.934-32.85 21.778-43.427 8.934-7.79 18.985-11.687 27.361-11.687 15.077 0 18.427 12.248 1.117 40.64-.558 6.68-1.117 16.144-1.117 23.381 0 39.527 7.26 75.713 6.143 105.779-.559 13.914-3.35 29.505-9.493 41.753 22.894-15.592 38.53-33.963 48.58-61.242 5.026-12.804 13.402-8.907 17.311 0 2.792 5.567 4.467 21.16-5.584 38.417-21.22 38.966-60.307 60.12-102.187 61.79-33.504 1.118-67.008-7.79-85.994-42.862-6.142-10.577-9.493-23.942-9.493-36.747 0-16.7 5.584-32.841 17.87-43.419m409.291-116.913c-14.518 24.492-39.088 66.249-42.996 75.713 24.01-23.382 42.996-48.99 55.84-70.702 18.985-31.733 26.248-56.232 22.894-58.459-2.234-1.109-16.752 20.603-35.738 53.448m63.658-43.98c-17.306 66.245-78.176 131.94-127.315 164.786-11.168 28.392-18.428 53.444-18.428 72.929 0 13.365 3.35 22.825 10.61 22.825 25.687 0 58.074-37.3 79.293-77.383 7.26-13.913 19.544-13.913 23.453.557 2.233 8.35 1.675 21.16-5.584 36.19-8.376 16.701-49.698 62.347-96.604 62.347-34.062 0-55.281-19.484-55.281-57.897 0-9.464 1.117-20.598 3.909-31.728 21.777-92.418 84.877-195.413 139.6-252.754 10.61-10.577 20.665-13.918 31.274-3.897 12.281 10.577 18.423 26.17 18.423 40.644 0 7.79-.554 13.913-3.35 23.382"/><path d="M153.078 56.319c0-8.35-4.467-11.691-8.376-11.691-3.35 0-8.376 4.454-8.376 13.36 0 10.022 2.792 24.496 8.935 31.733 5.584-12.804 7.817-26.165 7.817-33.402m-93.81 151.424c14.518 0 37.412-20.598 57.514-57.897 8.935-15.031 15.636-29.506 19.544-41.753-14.518-8.908-29.036-27.28-34.62-43.424-10.61 11.135-22.336 25.609-31.83 42.31-14.518 25.052-24.01 57.341-24.01 77.383 0 17.258 6.142 23.381 13.401 23.381m188.181 25.052c-3.909 6.685-7.817 11.691-18.986 6.685-22.894-11.695-31.27-22.83-30.153-52.335 1.117-19.485 5.584-48.433 11.168-79.61-7.818 4.455-17.869 7.795-26.245 9.465-13.402 51.774-58.074 119.135-111.68 119.135-17.31 0-36.859-7.794-52.494-27.835-10.61-13.914-16.19-31.732-16.19-48.434 0-23.381 9.494-53.444 23.45-77.939 20.664-36.186 58.073-69.031 92.14-71.815 19.544-1.113 29.595 3.34 42.438 20.598 2.234 3.34 5.026 5.567 8.376 8.908 10.61 10.577 18.427 23.381 18.427 52.887 22.336-11.691 36.296-42.31 45.23-77.383C236.84 1.762 246.332 2.318 254.708 9c12.844 11.134 19.544 24.495 19.544 41.196 0 13.918-13.401 59.568-29.036 134.167 40.204-61.238 100.512-138.62 133.457-172.58C391.52-.465 398.78 1.762 398.78 15.68c0 13.361-5.026 27.835-23.457 49.547-51.931 62.908-89.344 106.331-127.874 167.57" mask="url(#b)" transform="translate(1510.965 120.1)"/><path d="M1940.453 240.441c4.468 2.784 8.376 3.897 12.285 3.897 13.402 0 31.266-16.701 42.439-31.732 16.19-21.712 27.92-47.877 21.777-52.891-8.376-6.68-49.697 27.278-76.5 80.726m31.828 33.403c-13.401 0-26.803-3.897-39.646-12.248-3.355 11.134-5.026 22.825-5.026 32.846 0 24.495 10.047 41.757 26.8 41.757 42.442 0 79.855-41.2 102.749-75.716 6.142-8.908 13.402-10.021 17.869 1.113 1.68 5.01 2.233 21.155-7.818 36.186-23.453 33.963-68.125 60.125-111.68 60.681-51.935.561-80.41-33.402-80.41-77.939 0-20.041 5.58-41.753 17.31-64.021 29.038-59.015 74.268-88.52 106.655-88.52 7.818 0 13.96 1.117 19.544 4.453 15.636 8.911 26.804 17.819 34.621 28.953 3.35 5.01 5.584 13.36 5.584 20.598 0 33.402-37.413 91.857-86.552 91.857"/></g></g></svg>