<svg xmlns="http://www.w3.org/2000/svg" width="768" height="403.816" viewBox="0 0 768 403.816">
  <g id="Group_7" data-name="Group 7" transform="translate(-204 -396)">
    <g id="Group_6" data-name="Group 6">
      <g id="Group_4" data-name="Group 4">
        <g id="Group_3" data-name="Group 3">
          <g id="Group_2" data-name="Group 2">
            <g id="iPad-Copy" transform="translate(204 134.816)">
              <g id="Group_1" data-name="Group 1" transform="translate(0 258)">
                <rect id="Rectangle-3" width="768" height="324" transform="translate(0 83)" fill="#00bf8f"/>
                <g id="FINAL" transform="translate(226.952 5)">
                  <g id="_1_www_ipad---728" data-name="1_www_ipad---728" transform="translate(-201 -3176)">
                    <g id="bottom" transform="translate(200.048 3174.184)">
                      <g id="charity" transform="translate(0 0)">
                        <g id="background" transform="translate(0 0)">
                          <g id="harts" transform="translate(0)">
                            <path id="Fill-1" d="M16.186,4.163C10.79-3.929,0,.807,0,9.623c0,5.964,5.39,10.218,9.442,13.424,4.215,3.333,5.4,4.046,6.744,5.4,1.349-1.349,2.476-2.133,6.745-5.4,4.112-3.141,9.442-7.526,9.442-13.489,0-8.751-10.791-13.488-16.187-5.4" transform="translate(0 23.746) rotate(-8)" fill="#00bf8f" fill-rule="evenodd"/>
                            <path id="Fill-1-2" data-name="Fill-1" d="M15.814,4.067C10.543-3.839,0,.789,0,9.4c0,5.827,5.266,9.983,9.225,13.116,4.119,3.256,5.271,3.953,6.589,5.271,1.318-1.318,2.419-2.084,6.59-5.271,4.018-3.068,9.225-7.353,9.225-13.179,0-8.55-10.543-13.178-15.815-5.271" transform="translate(137.367 100.037) rotate(-6)" fill="#fff" fill-rule="evenodd"/>
                            <path id="Fill-1-3" data-name="Fill-1" d="M28.266,7.27C18.843-6.862,0,1.41,0,16.805,0,27.221,9.413,34.649,16.489,40.248c7.361,5.82,9.422,7.066,11.777,9.422,2.356-2.356,4.324-3.725,11.779-9.422,7.182-5.484,16.489-13.143,16.489-23.556,0-15.282-18.845-23.554-28.267-9.422" transform="translate(127.923 0) rotate(6)" fill="#00bf8f" fill-rule="evenodd"/>
                            <path id="Fill-1-4" data-name="Fill-1" d="M28.266,7.27C18.843-6.862,0,1.41,0,16.805,0,27.221,9.413,34.649,16.489,40.248c7.361,5.82,9.422,7.066,11.777,9.422,2.356-2.356,4.324-3.725,11.779-9.422,7.182-5.484,16.489-13.143,16.489-23.556,0-15.282-18.845-23.554-28.268-9.422" transform="translate(222.597 45.574) rotate(6)" fill="#00bf8f" fill-rule="evenodd"/>
                          </g>
                        </g>
                      </g>
                    </g>
                  </g>
                </g>
              </g>
            </g>
          </g>
        </g>
      </g>
    </g>
  </g>
</svg>
