<svg xmlns="http://www.w3.org/2000/svg" xmlns:xlink="http://www.w3.org/1999/xlink" viewBox="0 0 396 276"><defs><path id="a" d="M0 100.155h199.397V0H0z"/></defs><g fill="none" fill-rule="evenodd"><path d="M100.078 101.89C43.74 63.45-13.97 122.59 9.187 179.905c15.667 38.777 61.882 52.273 96.648 62.473 36.16 10.595 45.705 12.135 58.018 17.362 5.227-12.314 10.496-20.374 29.68-52.793 18.487-31.221 41.618-73.731 25.954-112.5-22.986-56.893-105.585-59.343-119.41 7.443" fill="#000" opacity=".18"/><path d="M295.009 101.583c-13.824-66.786-96.419-64.333-119.576-7.018-15.667 38.777 8.203 80.588 26.126 112.077 18.651 32.74 24.447 40.478 29.674 52.791 12.314-5.227 21.703-7.365 58.023-17.36 34.986-9.615 81.155-24.126 96.818-62.895 22.987-56.893-34.728-116.034-91.065-77.595" fill="#000" opacity=".18"/><path d="M197.653 41.52C146.431-35.3 44 9.665 44 93.352c0 56.62 51.166 96.997 89.632 127.432 40.017 31.637 51.216 38.41 64.021 51.216 12.806-12.805 23.507-20.251 64.028-51.216 39.039-29.813 89.632-71.442 89.632-128.048 0-83.071-102.438-128.037-153.66-51.216" fill="#FFF"/><g transform="translate(101 79)"><path d="M100.878 26.984h3.24c1.475 0 2.212-.892 2.212-2.675v-7.974c0-1.784-.737-2.676-2.212-2.676h-3.24v13.325zm6.225 19.138l-3.241-14.92h-2.984v14.92h-4.94V9.184h9.672c3.773 0 5.66 2.109 5.66 6.328v9.106c0 3.223-.978 5.265-2.933 6.122l3.447 15.382h-4.681zM115.642 46.122V9.183h10.906V13.3h-5.967v12.605h5.967v4.115h-5.967v11.987h5.967v4.116zM139.924 20.656v-5.762c.034-1.062-.48-1.595-1.543-1.595h-1.441c-1.131 0-1.664.55-1.594 1.646v7.46c0 .687.136 1.141.411 1.363.274.224.634.455 1.08.695l6.174 3.704c.445.275.805.54 1.08.798.275.257.48.54.617.849.137.308.233.66.284 1.054.051.395.077.884.077 1.466v7.563c0 4.15-1.99 6.225-5.968 6.225h-3.035c-3.945 0-5.916-2.263-5.916-6.79v-2.83h4.938v3.961c0 1.029.497 1.543 1.492 1.543h2.11c.994 0 1.474-.514 1.44-1.543v-7.511c0-.686-.112-1.14-.334-1.364a3.964 3.964 0 00-.901-.643l-6.225-3.91c-.549-.376-.978-.728-1.286-1.054-.31-.326-.532-.651-.669-.978a3.494 3.494 0 01-.257-1.054 14.406 14.406 0 01-.052-1.287v-7.15c0-4.22 1.972-6.329 5.917-6.329h2.623c3.944 0 5.917 2.11 5.917 6.328v5.145h-4.939zM164.464 36.45v3.396c0 4.185-1.972 6.276-5.916 6.276h-3.19c-3.945 0-5.916-2.091-5.916-6.276V15.46c0-4.184 1.971-6.277 5.916-6.277h3.19c3.944 0 5.916 2.093 5.916 6.277v5.196h-4.939V15.46c0-1.44-.737-2.16-2.212-2.16h-.978c-1.303 0-1.954.72-1.954 2.16v24.386c0 1.44.651 2.16 1.954 2.16h1.235c1.304 0 1.955-.72 1.955-2.16V36.45h4.94zM183.86 9.183v29.943c0 4.664-2.35 6.996-7.05 6.996h-1.49c-4.665 0-6.998-2.348-6.998-7.048V9.184h4.94v30.044c0 .79.161 1.39.488 1.801.325.412.882.617 1.672.617h1.235c1.508 0 2.263-.805 2.263-2.418V9.183h4.94zM188.49 46.122V9.183h10.906V13.3h-5.967v12.605h5.967v4.115h-5.967v11.987h5.967v4.116zM101.392 86.656h4.115c1.03 0 1.544-.531 1.544-1.595v-7.768c0-1.75-.978-2.624-2.933-2.624h-2.726v11.987zm0-16.103h2.212c.96 0 1.603-.18 1.929-.54.326-.36.49-.986.49-1.878v-7.511c0-1.783-.739-2.676-2.213-2.676h-2.418v12.605zm6.534 1.955c2.708 0 4.063 1.32 4.063 3.961v8.798c0 3.67-1.869 5.505-5.607 5.505h-9.93v-36.94h7.924c4.39 0 6.585 2.23 6.585 6.689v7.82c-.07 2.23-1.08 3.618-3.035 4.167zM126.445 72.765V60.47c0-1.44-.72-2.16-2.16-2.16h-1.337c-1.442 0-2.162.72-2.162 2.16v12.296h5.66zm-5.659 18.007h-4.938V60.16c0-4.219 1.972-6.328 5.916-6.328h3.704c3.944 0 5.917 2.109 5.917 6.328v30.61h-4.94v-13.53h-5.659v13.53zM145.994 53.833h4.94v36.939h-4.94v-7.357l-5.298-16.823v24.18h-4.94v-36.94h4.94l5.298 17.853zM160.503 72.456l5.298-18.623h4.527l-5.35 18.418 6.483 18.52h-4.94l-6.018-18.006v18.007h-4.94v-36.94h4.94z" fill="#91278E"/><mask id="b" fill="#fff"><use xlink:href="#a"/></mask><path fill="#000" mask="url(#b)" d="M79.861 100.155h.745V0h-.745zM22.473 60.096h2.15c1.113 0 1.668-.615 1.668-1.844V38.058c0-1.229-.63-1.844-1.887-1.844H22.43c-1.23 0-1.845.615-1.845 1.844v20.194c0 1.23.63 1.844 1.889 1.844zm-1.01 3.819c-3.396 0-5.093-1.785-5.093-5.356V37.795c0-3.6 1.683-5.4 5.049-5.4h4.039c3.365 0 5.048 1.8 5.048 5.4v20.764c0 3.571-1.697 5.356-5.093 5.356h-3.95zM39.781 60.097h2.152c1.111 0 1.668-.614 1.668-1.843V38.06c0-1.229-.63-1.844-1.888-1.844h-1.975c-1.23 0-1.844.615-1.844 1.844v20.194c0 1.229.629 1.843 1.887 1.843zm-1.009 3.82c-3.396 0-5.092-1.785-5.092-5.356V37.797c0-3.6 1.682-5.4 5.047-5.4h4.04c3.365 0 5.048 1.8 5.048 5.4V58.56c0 3.57-1.697 5.356-5.093 5.356h-3.95zM55.215 60.097h3.162c1.112 0 1.667-.468 1.667-1.405V38.5c0-1.521-.63-2.283-1.887-2.283h-2.942v23.881zm-4.214 3.82v-31.52h7.331c3.95 0 5.927 2.02 5.927 6.058v20.896c0 3.044-1.684 4.566-5.049 4.566H51zM13.126 41.306v-3.423c0-3.658-1.785-5.487-5.356-5.487H4.873c-3.185 0-4.804 1.733-4.867 5.191H0v21.016h.006c.063 3.458 1.682 5.19 4.867 5.19H7.77c3.571 0 5.356-1.827 5.356-5.486V47.322H6.531v4.328h2.38v5.854c0 1.52-.6 2.282-1.8 2.282H6.06c-1.23 0-1.844-.761-1.844-2.282V38.497c0-1.521.614-2.283 1.844-2.283h1.053c1.2 0 1.8.762 1.8 2.283v2.81h4.214zM12.877 18.755h1.727c.786 0 1.18-.475 1.18-1.425v-4.25c0-.95-.394-1.425-1.18-1.425h-1.727v7.1zM10.246 9.27h5.153c2.01 0 3.014 1.125 3.014 3.371v4.853c0 1.717-.52 2.805-1.561 3.262l1.837 8.195h-2.495l-1.727-7.948h-1.59v7.948h-2.631V9.27zM20.607 28.952V9.27h6.524v2.385h-3.893v5.976h3.454v2.384h-3.454v6.552h3.893v2.385zM34.532 19.358v-6.552c0-.767-.384-1.151-1.151-1.151h-.713c-.768 0-1.152.384-1.152 1.15v6.553h3.016zm-3.016 9.594h-2.63v-16.31c0-2.248 1.05-3.372 3.151-3.372h1.974c2.101 0 3.152 1.124 3.152 3.372v16.31h-2.631v-7.21h-3.016v7.21zM43.687 11.655V28.95h-2.632V11.655h-2.522V9.27h7.675v2.385zM47.716 28.952V9.27h6.524v2.385h-3.892v5.976h3.454v2.384h-3.454v6.552h3.892v2.385zM58.763 18.755h1.727c.785 0 1.178-.475 1.178-1.425v-4.25c0-.95-.393-1.425-1.178-1.425h-1.727v7.1zM56.131 9.27h5.154c2.01 0 3.014 1.125 3.014 3.371v4.853c0 1.717-.52 2.805-1.562 3.262l1.837 8.195h-2.495l-1.726-7.948h-1.59v7.948h-2.632V9.27zM8.234 14.826V12.68c0-2.295-1.12-3.442-3.36-3.442H3.057c-1.998 0-3.013 1.087-3.053 3.257h-.005V25.674h.005c.04 2.17 1.055 3.258 3.053 3.258h1.817c2.24 0 3.36-1.148 3.36-3.443V18.6H4.097v2.715H5.59v3.672c0 .953-.376 1.431-1.129 1.431h-.66c-.772 0-1.157-.478-1.157-1.431V13.064c0-.954.385-1.431 1.156-1.431h.661c.753 0 1.129.477 1.129 1.431v1.762h2.644zM0 70.738h64.25V67.12H0zM6.728 86.84v1.06c0 1.875-.883 2.812-2.65 2.812H2.65C.883 90.712 0 89.775 0 87.9V76.98c0-1.875.884-2.812 2.65-2.812h1.43c1.766 0 2.649.937 2.649 2.812v1.865H4.516v-1.704c0-.646-.33-.968-.99-.968h-.438c-.585 0-.876.322-.876.968v10.598c0 .645.291.968.876.968h.552c.583 0 .876-.323.876-.968v-.898h2.212zM13.386 90.712V83.2h-2.719v7.512H8.456V74.168h2.211v7.028h2.72v-7.028h2.21v16.544zM22.303 82.648V77.14c0-.645-.322-.968-.967-.968h-.6c-.645 0-.967.323-.967.968v5.507h2.534zm-2.534 8.064h-2.213v-13.71c0-1.889.884-2.834 2.65-2.834h1.658c1.767 0 2.65.945 2.65 2.835v13.709h-2.211v-6.06h-2.534v6.06zM28.685 82.14h1.451c.66 0 .991-.399.991-1.197V77.37c0-.799-.33-1.198-.99-1.198h-1.452v5.968zm-2.212-7.972h4.332c1.689 0 2.534.945 2.534 2.835v4.078c0 1.444-.437 2.358-1.313 2.741l1.544 6.89h-2.097L30.02 84.03h-1.336v6.682h-2.212V74.168zM35.182 90.712h2.212V74.168h-2.212zM42.992 76.173v14.538h-2.211V76.173h-2.12V74.17h6.452v2.004zM46.38 90.712h2.211V74.168h-2.212zM50.665 90.712V74.168h5.483v2.005h-3.272v5.023h2.903V83.2h-2.903v5.507h3.272v2.005zM61.977 78.615v-1.451c0-.66-.322-.99-.967-.99h-.346c-.63 0-.945.33-.945.99v2.742c0 .307.061.514.184.622.124.107.323.246.6.414l2.096 1.13c.462.26.787.465.98.61.191.146.34.322.448.53.108.208.162.603.162 1.186v3.525c0 1.86-.89 2.789-2.672 2.789h-1.36c-1.766 0-2.65-1.015-2.65-3.042v-.83h2.212v.9c0 .644.33.967.991.967h.392c.583 0 .875-.323.875-.968v-2.81c0-.307-.06-.515-.184-.623a4.797 4.797 0 00-.6-.414l-2.096-1.176c-.46-.245-.795-.452-1.002-.622a1.412 1.412 0 01-.449-.656c-.093-.269-.139-.618-.139-1.049v-3.387c0-1.89.884-2.834 2.65-2.834h1.382c1.767 0 2.65.945 2.65 2.834v1.613h-2.212z"/></g><text font-family="HelveticaNeue-Bold, Helvetica Neue" font-size="14" font-weight="bold" fill="#00BF8F" transform="translate(-17)"><tspan x="151.014" y="67">In Partnership with</tspan></text></g></svg>
